{"title":"Constantine-AC3-5,1-DVDRiP[ENG]2005 ACB-Team","uid":5586372,"size":1093004654,"categoryP":"video","categoryS":"movies","magnet":"?xt=urn:btih:3706d7f813018e03c8ca5ca94080ece817f9ec5d&amp;dn=Constantine-AC3-5%2C1-DVDRiP%5BENG%5D2005+ACB-Team&amp;tr=udp%3A%2F%2Ftracker.openbittorrent.com%3A80&amp;tr=udp%3A%2F%2Fopen.demonii.com%3A1337&amp;tr=udp%3A%2F%2Ftracker.coppersurfer.tk%3A6969&amp;tr=udp%3A%2F%2Fexodus.desync.com%3A6969","seeders":0,"leechers":0,"uploader":"ACB-Team.nl","files":-1,"time":1274711425,"description":"General\nComplete name                    : constantine-AC3-5,1-DVDRiP[ENG]2005 ACB-Team.avi\nFormat                           : AVI\nFormat/Info                      : Audio Video Interleave\nFile size                        : 1.02 GiB\nDuration                         : 1h 55mn\nOverall bit rate                 : 1 258 Kbps\n\nVideo\nID                               : 0\nFormat                           : MPEG-4 Visual\nFormat profile                   : Simple@L3\nFormat settings, BVOP            : No\nFormat settings, QPel            : No\nFormat settings, GMC             : No warppoints\nFormat settings, Matrix          : Default (H.263)\nCodec ID                         : XVID\nCodec ID/Hint                    : XviD\nDuration                         : 1h 55mn\nBit rate                         : 1 118 Kbps\nWidth                            : 640 pixels\nHeight                           : 360 pixels\nDisplay aspect ratio             : 16:9\nFrame rate                       : 25.000 fps\nColor space                      : YUV\nChroma subsampling               : 4:2:0\nBit depth                        : 8 bits\nScan type                        : Progressive\nBits/(Pixel*Frame)               : 0.194\nStream size                      : 926 MiB (89%)\nWriting library                  : Magic0432\n\nAudio\nID                               : 1\nFormat                           : MPEG Audio\nFormat version                   : Version 1\nFormat profile                   : Layer 3\nMode                             : Joint stereo\nMode extension                   : MS Stereo\nCodec ID                         : 55\nCodec ID/Hint                    : MP3\nDuration                         : 1h 55mn\nBit rate mode                    : Constant\nBit rate                         : 128 Kbps\nChannel(s)                       : 6 channels\nSampling rate                    : 44.1 KHz\nStream size                      : 106 MiB (10%)\nAlignment                        : Aligned on interleaves\nInterleave, duration             : 26 ms (0.65 video frame)\nWriting library                  : LAME3.97\n\nVoor meer films met nederlandse ondertiteling kijk : www.acb-team.nl\n\nIf you like the movie please comment\n\n!! Dont hit and run please seed !!\n","torrent":{"xt":"urn:btih:3706d7f813018e03c8ca5ca94080ece817f9ec5d","amp;dn":"Constantine-AC3-5%2C1-DVDRiP%5BENG%5D2005+ACB-Team","amp;tr":["udp%3A%2F%2Ftracker.openbittorrent.com%3A80","udp%3A%2F%2Fopen.demonii.com%3A1337","udp%3A%2F%2Ftracker.coppersurfer.tk%3A6969","udp%3A%2F%2Fexodus.desync.com%3A6969"],"infoHash":"3706d7f813018e03c8ca5ca94080ece817f9ec5d","infoHashBuffer":{"type":"Buffer","data":[55,6,215,248,19,1,142,3,200,202,92,169,64,128,236,232,23,249,236,93]},"announce":[],"urlList":[]}}